<svg width="123" height="126" viewBox="0 0 123 126" fill="none" xmlns="http://www.w3.org/2000/svg">
<path d="M64.6379 111.866C92.0115 111.866 114.204 89.674 114.204 62.2027C114.204 34.7313 91.9137 12.5391 64.6379 12.5391C37.2642 12.5391 15.072 34.7313 15.072 62.2027C15.072 89.674 37.2642 111.866 64.6379 111.866Z" fill="#F3F5F6" stroke="#E8EAEC" stroke-width="2" stroke-miterlimit="10"/>
<path d="M93.848 12.5391C83.4564 33.0215 68.2031 41.1698 54.2228 46.0358C50.9782 47.1807 47.4473 48.1825 44.1073 47.3238C40.7673 46.4651 37.8567 43.0781 38.7633 39.7387C39.5744 36.6378 43.5825 35.1113 46.493 36.3516C49.4513 37.5919 51.0736 41.0267 50.7873 44.223C50.501 47.4192 48.5448 50.2338 46.0636 52.1898C43.5347 54.1457 40.5287 55.3383 37.475 56.2447C30.7473 58.2483 23.7333 59.2025 17.1964 61.7308C10.6118 64.2592 4.36121 68.7912 2.11863 75.4223C0.496339 80.1451 1.16434 85.4881 3.26378 89.9724C5.36321 94.4567 8.94179 98.2254 12.9498 101.231C19.105 105.811 26.6916 108.673 34.3259 108.482C41.9602 108.291 49.6899 104.952 54.4136 98.941C59.1374 92.9301 60.5211 84.2 57.1811 77.2828C54.8908 72.5122 49.6899 68.6004 44.489 69.7453C40.3856 70.6994 37.3796 74.7067 36.9502 78.9525C36.5207 83.1982 38.3816 87.3963 41.149 90.5448C43.9165 93.7411 47.5905 95.9833 51.4076 97.9392C56.9902 100.754 63.5748 102.901 69.3482 100.515C74.8354 98.2731 78.0323 92.5962 80.1317 87.1101C82.2311 81.624 83.8057 75.6608 87.6229 71.1288C92.2035 65.6904 99.9332 63.162 106.852 64.784C113.77 66.4059 119.592 72.1306 121.309 79.0002C122.645 84.3432 121.023 91.0219 116.013 93.3595C112.1 95.22 107.281 93.8842 103.893 91.2127C100.506 88.5412 98.2155 84.7248 96.0206 81.0038" stroke="#E8EAEC" stroke-width="2" stroke-miterlimit="10" stroke-dasharray="4 4"/>
<path d="M55.3928 35.3718C63.7465 38.1997 72.811 33.7202 75.6389 25.3665C78.4669 17.0128 73.9873 7.94831 65.6336 5.1204C57.2799 2.29248 48.2154 6.77201 45.3875 15.1257C42.5596 23.4794 47.0391 32.5439 55.3928 35.3718Z" fill="white" stroke="#D0D6DA" stroke-width="2" stroke-miterlimit="10" stroke-linecap="round" stroke-linejoin="round"/>
<path d="M56.3522 32.5377C63.1406 34.8357 70.5065 31.1956 72.8045 24.4072C75.1026 17.6188 71.4624 10.2529 64.674 7.95487C57.8857 5.65685 50.5197 9.297 48.2217 16.0854C45.9237 22.8737 49.5638 30.2397 56.3522 32.5377Z" fill="white" stroke="#E8EAEC" stroke-width="2" stroke-miterlimit="10" stroke-linejoin="round"/>
<path d="M59.9705 21.8488C60.8559 22.1485 61.8167 21.6737 62.1164 20.7883C62.4162 19.9029 61.9414 18.9421 61.0559 18.6423C60.1705 18.3426 59.2097 18.8174 58.91 19.7028C58.6102 20.5883 59.085 21.5491 59.9705 21.8488Z" fill="white" stroke="#D0D6DA" stroke-width="2" stroke-miterlimit="10" stroke-linejoin="round"/>
<path d="M63.2269 12.2295L60.875 19.1768" stroke="#D0D6DA" stroke-width="2" stroke-miterlimit="10" stroke-linejoin="round"/>
<path d="M62.2975 20.2544L66.4002 20.4519" stroke="#D0D6DA" stroke-width="2" stroke-miterlimit="10" stroke-linejoin="round"/>
<path d="M64.2891 10.7704C64.5496 10.6462 64.6476 10.3218 64.508 10.0459C64.3685 9.77 64.0441 9.647 63.7836 9.77121C63.523 9.89541 63.425 10.2198 63.5646 10.4957C63.7042 10.7716 64.0286 10.8946 64.2891 10.7704Z" fill="white" stroke="#E8EAEC" stroke-width="2" stroke-miterlimit="10" stroke-linejoin="round"/>
<path d="M57.5312 30.705C57.7917 30.5808 57.8898 30.2564 57.7502 29.9805C57.6106 29.7046 57.2862 29.5816 57.0257 29.7058C56.7652 29.83 56.6671 30.1543 56.8067 30.4303C56.9463 30.7062 57.2707 30.8292 57.5312 30.705Z" fill="white" stroke="#E8EAEC" stroke-width="2" stroke-miterlimit="10" stroke-linejoin="round"/>
<path d="M50.9343 17.3827C51.1949 17.2585 51.2929 16.9341 51.1533 16.6582C51.0137 16.3823 50.6894 16.2593 50.4288 16.3835C50.1683 16.5077 50.0703 16.8321 50.2099 17.108C50.3495 17.3839 50.6738 17.5069 50.9343 17.3827Z" fill="white" stroke="#E8EAEC" stroke-width="2" stroke-miterlimit="10" stroke-linejoin="round"/>
<path d="M70.8691 24.1405C71.1297 24.0163 71.2277 23.692 71.0881 23.416C70.9485 23.1401 70.6242 23.0171 70.3636 23.1413C70.1031 23.2655 70.0051 23.5899 70.1447 23.8658C70.2842 24.1417 70.6086 24.2647 70.8691 24.1405Z" fill="white" stroke="#E8EAEC" stroke-width="2" stroke-miterlimit="10" stroke-linejoin="round"/>
<path d="M12.5148 40.0978L15.1568 39.3015C15.3482 39.246 15.3482 38.9682 15.1568 38.9126L12.5148 38.1163C12.4469 38.0978 12.3975 38.0484 12.379 37.9805L11.5827 35.3447C11.5271 35.1533 11.2494 35.1533 11.1938 35.3447L10.3975 37.9805C10.379 38.0484 10.3296 38.0978 10.2617 38.1163L7.62588 38.9126C7.43452 38.9682 7.43452 39.246 7.62588 39.3015L10.2679 40.0978C10.3358 40.1163 10.3852 40.1657 10.4037 40.2336L11.2 42.8756C11.2555 43.067 11.5333 43.067 11.5889 42.8756L12.3852 40.2336C12.3975 40.1657 12.4469 40.1163 12.5148 40.0978Z" fill="#E8EAEC"/>
<path d="M96.7697 9.17287L99.4716 9.73319C99.6663 9.77564 99.7988 9.5315 99.6571 9.39139L97.7149 7.43131C97.664 7.38265 97.6442 7.31569 97.6603 7.24718L98.2177 4.5507C98.2601 4.35602 98.016 4.22352 97.8759 4.36521L95.9187 6.30203C95.8701 6.35288 95.8031 6.37272 95.7346 6.35661L93.0381 5.79923C92.8434 5.75678 92.7109 6.00093 92.8526 6.14103L94.7949 8.10111C94.8457 8.14978 94.8656 8.21673 94.8495 8.28525L94.2891 10.9871C94.2467 11.1818 94.4908 11.3143 94.6309 11.1726L96.591 9.2304C96.6342 9.17661 96.7012 9.15676 96.7697 9.17287Z" fill="#E8EAEC"/>
<path d="M95.1093 76.0134L97.1736 74.1824C97.324 74.0517 97.2075 73.7995 97.0105 73.8293L94.2782 74.2148C94.2088 74.2265 94.1432 74.2024 94.0979 74.1485L92.2695 72.0899C92.1388 71.9395 91.8866 72.0561 91.9164 72.2531L92.2992 74.9797C92.3109 75.0491 92.2868 75.1146 92.2329 75.1599L90.1742 76.9884C90.0238 77.1191 90.1403 77.3713 90.3373 77.3414L93.0697 76.956C93.1391 76.9443 93.2046 76.9684 93.2499 77.0223L95.081 79.0864C95.2117 79.2368 95.4638 79.1203 95.434 78.9233L95.0486 76.1911C95.0314 76.1243 95.0555 76.0587 95.1093 76.0134Z" fill="#E8EAEC"/>
<path d="M74.086 57.3263L76.3977 56.6296C76.5652 56.581 76.5652 56.3379 76.3977 56.2893L74.086 55.5926C74.0266 55.5764 73.9833 55.5332 73.9671 55.4738L73.2704 53.1676C73.2218 53.0001 72.9787 53.0001 72.9301 53.1676L72.2333 55.4738C72.2171 55.5332 72.1739 55.5764 72.1145 55.5926L69.8082 56.2893C69.6407 56.3379 69.6407 56.581 69.8082 56.6296L72.1199 57.3263C72.1793 57.3425 72.2225 57.3857 72.2387 57.4451L72.9355 59.7567C72.9841 59.9242 73.2272 59.9242 73.2758 59.7567L73.9725 57.4451C73.9833 57.3857 74.0266 57.3425 74.086 57.3263Z" fill="#E8EAEC"/>
<path d="M29.7261 89.7619L32.0379 88.9656C32.2053 88.91 32.2053 88.6322 32.0379 88.5767L29.7261 87.7804C29.6667 87.7619 29.6235 87.7125 29.6073 87.6446L28.9105 85.0088C28.8619 84.8174 28.6189 84.8174 28.5703 85.0088L27.8735 87.6446C27.8573 87.7125 27.8141 87.7619 27.7547 87.7804L25.4483 88.5767C25.2809 88.6322 25.2809 88.91 25.4483 88.9656L27.7601 89.7619C27.8195 89.7804 27.8627 89.8298 27.8789 89.8977L28.5757 92.5397C28.6243 92.731 28.8673 92.731 28.9159 92.5397L29.6127 89.8977C29.6235 89.8298 29.6667 89.7804 29.7261 89.7619Z" fill="#E8EAEC"/>
<path d="M25.9066 50.6715L27.5578 50.1738C27.6774 50.1391 27.6774 49.9655 27.5578 49.9308L25.9066 49.4331C25.8641 49.4216 25.8333 49.3907 25.8217 49.3483L25.324 47.701C25.2893 47.5814 25.1157 47.5814 25.081 47.701L24.5833 49.3483C24.5717 49.3907 24.5408 49.4216 24.4984 49.4331L22.851 49.9308C22.7314 49.9655 22.7314 50.1391 22.851 50.1738L24.5023 50.6715C24.5447 50.6831 24.5756 50.7139 24.5871 50.7564L25.0848 52.4075C25.1195 52.5271 25.2932 52.5271 25.3279 52.4075L25.8256 50.7564C25.8333 50.7139 25.8641 50.6831 25.9066 50.6715Z" fill="#E8EAEC"/>
<path d="M121.045 51.7623L122.696 51.2647C122.816 51.2299 122.816 51.0563 122.696 51.0216L121.045 50.524C121.002 50.5124 120.972 50.4815 120.96 50.4391L120.462 48.7918C120.428 48.6723 120.254 48.6723 120.219 48.7918L119.722 50.4391C119.71 50.4815 119.679 50.5124 119.637 50.524L117.989 51.0216C117.87 51.0563 117.87 51.2299 117.989 51.2647L119.641 51.7623C119.683 51.7739 119.714 51.8047 119.725 51.8472L120.223 53.4983C120.258 53.6179 120.431 53.6179 120.466 53.4983L120.964 51.8472C120.972 51.8047 121.002 51.7739 121.045 51.7623Z" fill="#E8EAEC"/>
<path d="M38.1116 27.6539L39.7628 27.1563C39.8824 27.1215 39.8824 26.9479 39.7628 26.9132L38.1116 26.4156C38.0692 26.404 38.0383 26.3731 38.0267 26.3307L37.529 24.6834C37.4943 24.5639 37.3207 24.5639 37.286 24.6834L36.7883 26.3307C36.7767 26.3731 36.7458 26.404 36.7034 26.4156L35.056 26.9132C34.9364 26.9479 34.9364 27.1215 35.056 27.1563L36.7073 27.6539C36.7497 27.6655 36.7806 27.6963 36.7921 27.7388L37.2898 29.3899C37.3246 29.5095 37.4982 29.5095 37.5329 29.3899L38.0306 27.7388C38.0383 27.6963 38.0692 27.6655 38.1116 27.6539Z" fill="#E8EAEC"/>
<path d="M13.5209 83.1031L15.1722 82.6055C15.2918 82.5708 15.2918 82.3972 15.1722 82.3624L13.5209 81.8648C13.4785 81.8532 13.4476 81.8224 13.4361 81.7799L12.9384 80.1327C12.9037 80.0131 12.73 80.0131 12.6953 80.1327L12.1976 81.7799C12.1861 81.8224 12.1552 81.8532 12.1128 81.8648L10.4654 82.3624C10.3458 82.3972 10.3458 82.5708 10.4654 82.6055L12.1166 83.1031C12.1591 83.1147 12.1899 83.1456 12.2015 83.188L12.6992 84.8391C12.7339 84.9587 12.9075 84.9587 12.9422 84.8391L13.4399 83.188C13.4476 83.1456 13.4785 83.1147 13.5209 83.1031Z" fill="#E8EAEC"/>
<path d="M58.9064 57.5917L62.1932 62.2769C63.1323 63.6156 63.7745 64.7345 64.264 66.2458C66.0965 71.0952 65.413 76.4256 62.8913 80.7627C62.4232 81.5191 62.1849 82.3997 62.3005 83.1746C62.3205 84.0166 62.5702 84.9828 63.1069 85.7477C64.1801 87.2776 65.9797 88.0126 67.7879 87.7428C73.5949 86.6653 79.5676 88.4677 83.6578 92.8746C84.1559 93.3813 84.5583 93.955 85.0279 94.6243L88.3147 99.3096C88.7171 99.8833 89.024 100.524 89.3593 101.002L61.2477 120.723C60.8167 120.312 60.3472 119.642 60.0118 119.164L56.725 114.479C56.3896 114.001 56.1499 113.456 55.8145 112.978C55.6803 112.787 55.5747 112.433 55.3735 112.146C52.7846 106.828 53.0942 100.761 56.0555 95.8306C56.9916 94.3178 56.846 92.2799 55.7728 90.75C55.3033 90.0806 54.5754 89.4499 53.7905 89.1445C53.7234 89.0488 53.6278 89.1159 53.6278 89.1159C52.8429 88.8105 52.0009 88.8305 51.1588 88.8505C47.2556 89.5912 43.2553 88.9733 39.646 87.0824C38.727 86.5858 37.8079 86.0891 37.0129 85.3627C36.7832 85.2386 36.5819 84.9517 36.4478 84.7605C35.5858 83.9385 34.6567 83.0208 33.9189 81.969L30.6321 77.2838C30.565 77.1881 30.4309 76.9969 30.2967 76.8057L58.5996 56.9509C58.7052 57.3048 58.7723 57.4004 58.9064 57.5917Z" fill="#F3F5F6" stroke="#E8EAEC" stroke-width="1.9781" stroke-miterlimit="10" stroke-linecap="round" stroke-linejoin="round"/>
<path d="M74.7496 102.548C74.7496 102.548 64.6356 111.925 63.9562 111.974C63.5067 112.147 59.5278 113.797 56.9932 114.861L56.3225 113.905C55.9871 113.427 55.6517 112.949 55.3449 112.308C55.469 112.078 55.5261 111.753 55.5832 111.428C56.8804 107.379 60.912 101.126 69.4092 101.443L74.7496 102.548Z" fill="#F3F5F6" stroke="#E8EAEC" stroke-width="1.9781" stroke-miterlimit="10" stroke-linecap="round" stroke-linejoin="round"/>
<path d="M58.9064 57.5917L62.1932 62.2769C63.1323 63.6156 63.7745 64.7345 64.264 66.2458C66.0965 71.0952 65.413 76.4256 62.8913 80.7627C62.4232 81.5191 62.1849 82.3997 62.3005 83.1746C62.3205 84.0166 62.5702 84.9828 63.1069 85.7477C64.1801 87.2776 65.9797 88.0126 67.7879 87.7428C73.5949 86.6653 79.5676 88.4677 83.6578 92.8746C84.1559 93.3813 84.5583 93.955 85.0279 94.6243L88.3147 99.3096C88.7171 99.8833 89.024 100.524 89.3593 101.002L61.2477 120.723C60.8167 120.312 60.3472 119.642 60.0118 119.164L56.725 114.479C56.3896 114.001 56.1499 113.456 55.8145 112.978C55.6803 112.787 55.5747 112.433 55.3735 112.146C52.7846 106.828 53.0942 100.761 56.0555 95.8306C56.9916 94.3178 56.846 92.2799 55.7728 90.75C55.3033 90.0806 54.5754 89.4499 53.7905 89.1445C53.7234 89.0488 53.6278 89.1159 53.6278 89.1159C52.8429 88.8105 52.0009 88.8305 51.1588 88.8505C47.2556 89.5912 43.2553 88.9733 39.646 87.0824C38.727 86.5858 37.8079 86.0891 37.0129 85.3627C36.7832 85.2386 36.5819 84.9517 36.4478 84.7605C35.5858 83.9385 34.6567 83.0208 33.9189 81.969L30.6321 77.2838C30.565 77.1881 30.4309 76.9969 30.2967 76.8057L58.5996 56.9509C58.7052 57.3048 58.7723 57.4004 58.9064 57.5917Z" fill="white" stroke="#D0D6DA" stroke-width="2" stroke-miterlimit="10"/>
<path d="M56.7447 77.085L45.5774 85.775L39.8089 87.1109C38.8898 86.6142 37.9707 86.1176 37.1758 85.3912C36.946 85.267 36.7448 84.9802 36.6107 84.7889C39.6961 79.6283 42.5346 76.353 50.7906 74.6989C52.1778 74.4391 53.4694 74.2464 55.0192 74.0152C68.8154 72.3267 56.7447 77.085 56.7447 77.085Z" fill="#F3F5F6" stroke="#D0D6DA" stroke-width="1.9781" stroke-miterlimit="10" stroke-linecap="round" stroke-linejoin="round"/>
<path d="M64.3311 66.3411C66.1636 71.1905 65.4801 76.5209 62.9583 80.858C62.4903 81.6144 62.2519 82.495 62.3675 83.2699L62.2719 83.337C60.742 84.4102 60.3425 86.688 61.4157 88.2178L71.4102 102.465L68.6372 104.41L58.5757 90.0675C57.5025 88.5376 55.3204 88.0709 53.6949 89.2112C52.9099 88.9058 52.0679 88.9258 51.2259 88.9458C47.3227 89.6865 43.3224 89.0686 39.7131 87.1777C38.794 86.6811 37.8749 86.1844 37.08 85.458C45.5943 83.7653 48.46 78.9016 50.6663 74.9284C51.3827 73.7125 52.0035 72.5636 52.6914 71.5104C55.4143 67.4601 59.4317 66.0686 64.3311 66.3411Z" fill="#F3F5F6" stroke="#D0D6DA" stroke-width="2" stroke-miterlimit="10" stroke-linecap="round" stroke-linejoin="round"/>
<path d="M84.932 94.6907L88.2187 99.376C88.6212 99.9497 88.928 100.59 89.2634 101.069L64.2115 118.643L59.609 118.59L56.6576 114.383C56.3222 113.905 55.9869 113.427 55.7471 112.881C55.6129 112.69 55.5073 112.336 55.3061 112.049C55.4017 111.982 55.4688 112.078 55.5644 112.011C55.7271 112.039 55.8227 111.972 55.9183 111.905C65.2361 109.934 67.7279 104.334 70.0869 99.9684C70.4593 99.2791 70.9274 98.5227 71.367 97.929C74.2526 93.9073 78.4327 92.5443 83.4948 92.8454C83.9643 93.5147 84.4624 94.0214 84.932 94.6907Z" fill="#F3F5F6" stroke="#D0D6DA" stroke-width="2" stroke-miterlimit="10" stroke-linecap="round" stroke-linejoin="round"/>
<path d="M61.2033 57.4062L29.8406 79.4074C29.1713 79.8769 28.1952 79.7057 27.7927 79.132L25.6462 76.0722C25.1767 75.4029 25.415 74.5223 26.0843 74.0528L57.5426 51.9845C58.2119 51.515 59.121 51.5906 59.5906 52.2599L61.6699 55.2241C61.9482 56.0275 61.8726 56.9366 61.2033 57.4062Z" fill="white" stroke="#D0D6DA" stroke-width="2" stroke-miterlimit="10" stroke-linecap="round" stroke-linejoin="round"/>
<path d="M92.8628 102.539L61.5002 124.54C60.8309 125.01 59.9218 124.934 59.4522 124.265L57.3729 121.301C56.9033 120.631 57.1416 119.751 57.811 119.281L89.2692 97.213C89.9385 96.7435 90.8476 96.8191 91.3172 97.4884L93.3966 100.453C93.6749 101.256 93.5322 102.07 92.8628 102.539Z" fill="white" stroke="#D0D6DA" stroke-width="2" stroke-miterlimit="10" stroke-linecap="round" stroke-linejoin="round"/>
<path d="M111.522 35.6048L110.089 38.2694C109.679 39.0307 109.303 39.5997 108.706 40.1897C106.85 42.2064 104.17 43.1489 101.523 42.9873C101.055 42.9458 100.582 43.0422 100.244 43.2808C99.8505 43.4901 99.4535 43.8374 99.2195 44.2725C98.7517 45.1425 98.8317 46.167 99.3884 46.9571C101.276 49.4442 101.842 52.6931 100.732 55.6712C100.611 56.0267 100.435 56.353 100.23 56.7337L98.7976 59.3983C98.6221 59.7246 98.3923 60.0217 98.2461 60.2936L82.2582 51.6967C82.35 51.3955 82.5547 51.0148 82.7009 50.7429L84.1338 48.0783C84.28 47.8064 84.4805 47.5637 84.6267 47.2918C84.6852 47.1831 84.8273 47.0492 84.9151 46.886C86.8122 44.4009 89.7512 43.107 92.7832 43.3353C93.72 43.4184 94.648 42.8658 95.1159 41.9957C95.3205 41.6151 95.4457 41.1216 95.4036 40.6783C95.4329 40.6239 95.3785 40.5947 95.3785 40.5947C95.3364 40.1514 95.1271 39.7585 94.9178 39.3655C93.6414 37.6977 92.9836 35.6615 93.02 33.5079C93.0364 32.9559 93.0528 32.4039 93.2072 31.8559C93.2113 31.7179 93.2991 31.5548 93.3576 31.446C93.5412 30.8438 93.7541 30.1871 94.0757 29.5889L95.5086 26.9242C95.5378 26.8699 95.5963 26.7611 95.6548 26.6523L111.751 35.3077C111.609 35.4416 111.58 35.496 111.522 35.6048Z" fill="#F3F5F6" stroke="#E8EAEC" stroke-width="1.9781" stroke-miterlimit="10" stroke-linecap="round" stroke-linejoin="round"/>
<path d="M94.0481 53.7593C94.0481 53.7593 87.2177 51.2082 87.0335 50.8988C86.8452 50.7275 85.1214 49.2398 84.0169 48.2953L84.3093 47.7515C84.4555 47.4796 84.6017 47.2077 84.8315 46.9107C84.9695 46.9148 85.1368 46.8645 85.304 46.8142C87.5244 46.4658 91.4346 46.8859 93.3021 50.9746L94.0481 53.7593Z" fill="#F3F5F6" stroke="#E8EAEC" stroke-width="1.9781" stroke-miterlimit="10" stroke-linecap="round" stroke-linejoin="round"/>
<path d="M111.522 35.6048L110.089 38.2694C109.679 39.0307 109.303 39.5997 108.706 40.1897C106.85 42.2064 104.17 43.1489 101.523 42.9873C101.055 42.9458 100.582 43.0422 100.244 43.2808C99.8505 43.4901 99.4535 43.8374 99.2195 44.2725C98.7517 45.1425 98.8317 46.167 99.3884 46.9571C101.276 49.4442 101.842 52.6931 100.732 55.6712C100.611 56.0267 100.435 56.353 100.23 56.7337L98.7976 59.3983C98.6221 59.7246 98.3923 60.0217 98.2461 60.2936L82.2582 51.6967C82.35 51.3955 82.5547 51.0148 82.7009 50.7429L84.1338 48.0783C84.28 47.8064 84.4805 47.5637 84.6267 47.2918C84.6852 47.1831 84.8273 47.0492 84.9151 46.886C86.8122 44.4009 89.7512 43.107 92.7832 43.3353C93.72 43.4184 94.648 42.8658 95.1159 41.9957C95.3205 41.6151 95.4457 41.1216 95.4036 40.6783C95.4329 40.6239 95.3785 40.5947 95.3785 40.5947C95.3364 40.1514 95.1271 39.7585 94.9178 39.3655C93.6414 37.6977 92.9836 35.6615 93.02 33.5079C93.0364 32.9559 93.0528 32.4039 93.2072 31.8559C93.2113 31.7179 93.2991 31.5548 93.3576 31.446C93.5412 30.8438 93.7541 30.1871 94.0757 29.5889L95.5086 26.9242C95.5378 26.8699 95.5963 26.7611 95.6548 26.6523L111.751 35.3077C111.609 35.4416 111.58 35.496 111.522 35.6048Z" fill="white" stroke="#D0D6DA" stroke-width="2" stroke-miterlimit="10"/>
<path d="M101.801 39.2108L95.0456 35.9989L93.0453 33.5913C93.0617 33.0393 93.0781 32.4873 93.2326 31.9394C93.2367 31.8014 93.3244 31.6383 93.3829 31.5295C96.5528 31.7619 98.7737 32.3251 101.515 35.8321C101.967 36.4256 102.364 36.9899 102.842 37.6671C106.914 43.7827 101.801 39.2108 101.801 39.2108Z" fill="#F3F5F6" stroke="#D0D6DA" stroke-width="1.9781" stroke-miterlimit="10" stroke-linecap="round" stroke-linejoin="round"/>
<path d="M108.677 40.2439C106.821 42.2606 104.141 43.2031 101.494 43.0416C101.025 43 100.553 43.0965 100.214 43.335L100.16 43.3058C99.2899 42.8379 98.1192 43.1899 97.6513 44.06L93.2944 52.1627L91.7174 51.3147L96.1035 43.1576C96.5714 42.2875 96.2738 41.146 95.3494 40.6489C95.3073 40.2057 95.098 39.8127 94.8886 39.4197C93.6122 37.7519 92.9545 35.7158 92.9909 33.5621C93.0073 33.0101 93.0237 32.4581 93.1781 31.9102C95.9988 35.53 98.9763 35.729 101.377 35.828C102.121 35.8777 102.811 35.8982 103.472 35.9731C106.031 36.2978 107.642 37.8651 108.677 40.2439Z" fill="#F3F5F6" stroke="#D0D6DA" stroke-width="2" stroke-miterlimit="10" stroke-linecap="round" stroke-linejoin="round"/>
<path d="M100.176 56.7038L98.7436 59.3685C98.5681 59.6947 98.3383 59.9918 98.1921 60.2637L83.9444 52.6025L82.8767 50.416L84.1633 48.0233C84.3095 47.7514 84.4557 47.4795 84.6563 47.2368C84.7148 47.1281 84.8569 46.9942 84.9446 46.831C84.999 46.8603 84.9698 46.9146 85.0242 46.9439C85.0493 47.0275 85.1037 47.0567 85.1581 47.086C88.3009 51.0192 91.5375 50.8668 94.1596 50.9448C94.5736 50.9571 95.042 50.9986 95.4267 51.0653C98.0113 51.4736 99.6474 53.1245 100.707 55.587C100.502 55.9676 100.381 56.3231 100.176 56.7038Z" fill="#F3F5F6" stroke="#D0D6DA" stroke-width="2" stroke-miterlimit="10" stroke-linecap="round" stroke-linejoin="round"/>
<path d="M112.154 36.6455L94.3167 27.0544C93.936 26.8497 93.7852 26.3479 93.9607 26.0217L94.8964 24.2815C95.1011 23.9008 95.5736 23.8044 95.9542 24.009L113.845 33.6294C114.226 33.8341 114.406 34.2814 114.201 34.6621L113.295 36.3479C112.982 36.6701 112.534 36.8501 112.154 36.6455Z" fill="white" stroke="#D0D6DA" stroke-width="2" stroke-miterlimit="10" stroke-linecap="round" stroke-linejoin="round"/>
<path d="M98.352 62.3128L80.5152 52.7217C80.1345 52.517 79.9544 52.0696 80.1591 51.689L81.0656 50.0032C81.2703 49.6225 81.7428 49.526 82.1234 49.7307L100.015 59.3511C100.395 59.5558 100.575 60.0031 100.371 60.3838L99.4642 62.0696C99.1508 62.3917 98.7327 62.5174 98.352 62.3128Z" fill="white" stroke="#D0D6DA" stroke-width="2" stroke-miterlimit="10" stroke-linecap="round" stroke-linejoin="round"/>
</svg>
