<svg width="43" height="42" viewBox="0 0 43 42" fill="none" xmlns="http://www.w3.org/2000/svg">
<path opacity="0.4" d="M34.7449 17.3247V33.0013C34.7449 36.4734 33.8769 38.2094 29.5367 38.2094H13.9123C9.57213 38.2094 8.7041 36.4734 8.7041 33.0013V17.3247C8.98187 17.3594 9.277 17.3768 9.57213 17.3768H33.8769C34.172 17.3768 34.4671 17.3594 34.7449 17.3247Z" fill="#09495D"/>
<path d="M39.0848 8.69815V12.1703C39.0848 15.3472 37.6439 17.0659 34.7447 17.3263C34.4669 17.3611 34.1718 17.3784 33.8767 17.3784H9.57193C9.2768 17.3784 8.98167 17.3611 8.7039 17.3263C5.80469 17.0659 4.36377 15.3472 4.36377 12.1703V8.69815C4.36377 5.22604 6.09982 3.48999 9.57193 3.48999H33.8767C37.3488 3.48999 39.0848 5.22604 39.0848 8.69815Z" fill="#09495D"/>
<path d="M24.884 25.6246H18.5647C17.853 25.6246 17.2627 25.0343 17.2627 24.3225C17.2627 23.6108 17.853 23.0205 18.5647 23.0205H24.884C25.5958 23.0205 26.186 23.6108 26.186 24.3225C26.186 25.0343 25.5958 25.6246 24.884 25.6246Z" fill="#09495D"/>
</svg>
